Results
version=1
nRows=22
nColumns=24
inDegrees=yes
endheader
time	pelvis_tilt	pelvis_list	pelvis_rotation	pelvis_tx	pelvis_ty	pelvis_tz	hip_flexion_r	hip_adduction_r	hip_rotation_r	knee_angle_r	ankle_angle_r	subtalar_angle_r	mtp_angle_r	hip_flexion_l	hip_adduction_l	hip_rotation_l	knee_angle_l	ankle_angle_l	subtalar_angle_l	mtp_angle_l	lumbar_extension	lumbar_bending	lumbar_rotation
      0.50400000	      0.79697523	      3.25561694	      0.61409397	     -0.75657050	      1.00441518	      0.25421939	     22.05216652	     -1.11054988	     -7.03714907	     -7.08200927	      2.51489329	     -6.33813143	     12.46580456	    -14.94285710	      7.03497062	      3.74153537	     -5.64895670	      9.46373327	     -9.29643582	      4.33490804	     -6.26271119	     -5.11550478	     -2.46055925
      0.50816667	      0.85590591	      3.26402238	      0.67565387	     -0.75084073	      1.00401849	      0.25426017	     21.92957074	     -1.05989698	     -6.88083278	     -7.27987657	      2.59832979	     -6.45303294	     12.46491037	    -15.08738376	      7.02646795	      3.82954708	     -6.19727451	      9.50377544	     -9.32181383	      4.35980569	     -6.27981719	     -5.09440950	     -2.48251167
      0.51233333	      0.93034547	      3.26651997	      0.73181972	     -0.74508257	      1.00368832	      0.25433880	     21.75846044	     -0.99253328	     -6.60507753	     -7.46938532	      2.59146755	     -6.75227902	     12.46779950	    -15.22329271	      7.00705409	      3.88431994	     -6.78945593	      9.53711829	     -9.24485514	      4.42739874	     -6.32638877	     -5.05812282	     -2.57785203
      0.51650000	      0.99093081	      3.27838014	      0.78253440	     -0.73926945	      1.00336888	      0.25439378	     21.60884477	     -0.94422949	     -6.39290464	     -7.72523010	      2.57416241	     -6.95706795	     12.47516073	    -15.31409732	      7.00103629	      3.89957190	     -7.44450308	      9.53189826	     -9.23582811	      4.47654150	     -6.31744330	     -5.04123699	     -2.61558773
      0.52066667	      1.04545044	      3.27028180	      0.83156852	     -0.73341350	      1.00309398	      0.25451055	     21.41619002	     -0.85923127	     -6.02829318	     -7.92485016	      2.42161586	     -7.38128824	     12.50393679	    -15.36448494	      6.96450644	      3.86429375	     -8.16595758	      9.50694705	     -9.04765198	      4.61665549	     -6.31863068	     -4.99481485	     -2.69156349
      0.52483333	      1.11397290	      3.27981344	      0.86880892	     -0.72753823	      1.00285784	      0.25460877	     21.22689241	     -0.80115374	     -5.71491421	     -8.20404321	      2.28893377	     -7.70027414	     12.54948565	    -15.40409984	      6.95108427	      3.81488002	     -8.93433449	      9.46073130	     -8.89645820	      4.79538478	     -6.32762168	     -4.96968969	     -2.71685964
      0.52900000	      1.18013632	      3.28470198	      0.89898410	     -0.72163411	      1.00265164	      0.25471855	     21.03588876	     -0.73811837	     -5.39127964	     -8.50871148	      2.09523313	     -8.04042405	     12.61791807	    -15.40907608	      6.93210904	      3.74153597	     -9.76601232	      9.38762279	     -8.71719320	      5.04104869	     -6.32942687	     -4.93162057	     -2.72913793
      0.53316667	      1.24352493	      3.30115130	      0.92903959	     -0.71571357	      1.00248135	      0.25482963	     20.84298194	     -0.69061047	     -5.06778696	     -8.83400702	      1.88407788	     -8.36317075	     12.69903720	    -15.37380991	      6.92311558	      3.64959750	    -10.66769693	      9.28414102	     -8.51539056	      5.32431760	     -6.32381812	     -4.91017501	     -2.73010679
      0.53733333	      1.29259428	      3.32565181	      0.95201846	     -0.70977411	      1.00233161	      0.25494571	     20.66661061	     -0.65454225	     -4.74772863	     -9.18445306	      1.63234031	     -8.68184252	     12.78584506	    -15.28293097	      6.92128785	      3.51771245	    -11.64056647	      9.13791366	     -8.27820680	      5.63578795	     -6.29475199	     -4.89764426	     -2.71739907
      0.54150000	      1.36913084	      3.34164781	      0.96691128	     -0.70381869	      1.00223609	      0.25506294	     20.47635711	     -0.61890316	     -4.50466804	     -9.58744033	      1.36299716	     -8.89478344	     14.13072316	    -15.18290612	      6.90178754	      3.31058027	    -12.67706557	      8.89166598	     -8.01477500	     10.69584599	     -6.30231574	     -4.86213966	     -2.67613952
      0.54566667	      1.44264860	      3.37119862	      0.97635332	     -0.69787763	      1.00218591	      0.25521255	     20.27540121	     -0.59081957	     -4.18415163	     -9.97555678	      1.05085490	     -9.23437131	     14.11853642	    -15.05082745	      6.90088894	      3.15698163	    -13.77126515	      8.65289688	     -7.76885271	     10.75173559	     -6.31858162	     -4.85928988	     -2.66176992
      0.54983333	      1.49821610	      3.39155900	      0.99098394	     -0.69190667	      1.00214751	      0.25535635	     20.08769629	     -0.56241868	     -3.91349306	    -10.36731372	      0.73728577	     -9.53447108	     14.11562262	    -14.83068728	      6.87312875	      2.86980367	    -14.99311284	      8.41054332	     -7.35637681	     10.87605547	     -6.28013989	     -4.83668667	     -2.61059894
      0.55400000	      1.61710297	      3.39455822	      1.00228061	     -0.68595845	      1.00222557	      0.25550863	     19.83524967	     -0.52196350	     -3.68789827	    -10.77552479	      0.39932157	     -9.79184462	     14.12975506	    -14.63711787	      6.81365348	      2.53161467	    -16.28576680	      8.14489211	     -6.84751541	     11.34107400	     -6.34427847	     -4.78553160	     -2.52943795
      0.55816667	      1.62958614	      3.42366031	      1.00221145	     -0.68002463	      1.00216805	      0.25567755	     19.73123035	     -0.51201802	     -3.45870691	    -11.26055490	      0.12169361	    -10.03451228	     14.13883648	    -14.27609141	      6.78541304	      2.19419432	    -17.67134059	      7.81072994	     -6.43065277	     11.63217262	     -6.26695365	     -4.76574084	     -2.47914512
      0.56233333	      1.67606194	      3.45947953	      1.00652355	     -0.67410827	      1.00221056	      0.25587107	     19.57715440	     -0.51495023	     -3.25419985	    -11.72165348	     -0.17290658	    -10.21069701	     14.14574962	    -13.90780877	      6.74402531	      1.80443738	    -19.12062276	      7.37289097	     -5.90744706	     11.90239283	     -6.22875592	     -4.78294362	     -2.40910143
      0.56650000	      1.75426154	      3.45859467	      1.00731672	     -0.66824821	      1.00228695	      0.25606616	     19.41053312	     -0.48521001	     -3.10054153	    -12.23039501	     -0.44626635	    -10.42215542	     14.15410024	    -13.50563183	      6.64472690	      1.32977897	    -20.69369084	      7.00482595	     -5.30205127	     12.36428278	     -6.25548869	     -4.71543895	     -2.31325690
      0.57066667	      1.80895511	      3.47925174	      1.01694160	     -0.66240145	      1.00239802	      0.25629112	     19.25150831	     -0.47964082	     -2.92746675	    -12.70447734	     -0.75454326	    -10.67947609	     14.20294527	    -13.05031680	      6.55526434	      0.89405857	    -22.28080413	      6.36513781	     -4.86649815	     18.81891743	     -6.24347957	     -4.71062977	     -2.21084685
      0.57483333	      1.85224233	      3.49480969	      1.02226577	     -0.65657984	      1.00249366	      0.25649299	     19.13758887	     -0.48727345	     -2.86930581	    -13.25346101	     -0.90488647	    -10.62686726	     14.19922777	    -12.52697887	      6.44794017	      0.40386332	    -23.96965797	      5.78441333	     -4.29457805	     18.88017910	     -6.21280725	     -4.68873441	     -2.14200669
      0.57900000	      1.90116833	      3.49778362	      1.02763361	     -0.65081710	      1.00261719	      0.25672927	     19.01378643	     -0.47881721	     -2.79449014	    -13.79142354	     -1.07893600	    -10.69902250	     14.18872258	    -11.96427325	      6.30999812	     -0.09709217	    -25.72652195	      5.17512724	     -3.71270321	     18.99089960	     -6.20478695	     -4.65205673	     -2.03974163
      0.58316667	      1.94282692	      3.49217968	      1.03118895	     -0.64510913	      1.00274211	      0.25697824	     18.90625794	     -0.46469864	     -2.73974159	    -14.34453824	     -1.22474381	    -10.76400854	     14.17046139	    -11.34937152	      6.14783088	     -0.61365493	    -27.54783924	      4.55105513	     -3.14591137	     19.16539257	     -6.19786747	     -4.60143044	     -1.92355964
      0.58733333	      1.98388447	      3.47835041	      1.04058763	     -0.63942865	      1.00289971	      0.25724427	     18.78783190	     -0.44597010	     -2.70771525	    -14.87581750	     -1.32405160	    -10.77236001	     14.15003104	    -10.70547262	      5.96234149	     -1.11110498	    -29.39822010	      3.82135663	     -2.63655639	     19.33778208	     -6.18439209	     -4.55328584	     -1.81232013
      0.59150000	      2.02522645	      3.45729512	      1.04321833	     -0.63383212	      1.00305688	      0.25754255	     18.67703371	     -0.41530631	     -2.66334898	    -15.41751207	     -1.41966499	    -10.86090504	     13.55572795	    -10.02200439	      5.75224979	     -1.62157103	    -31.28970147	      3.04572837	     -2.19236760	     23.48419289	     -6.18982113	     -4.48911560	     -1.64258277
